<svg width="125" height="86" viewBox="0 0 125 86" fill="none" xmlns="http://www.w3.org/2000/svg">
<path d="M83.7647 7.89203C92.7605 7.88436 99.7908 9.31219 107.557 14.1679C98.4885 14.1349 96.3284 23.0312 91.973 29.109C89.6001 32.4209 85.8735 31.7418 86.4967 37.3437C87.3345 35.558 87.876 33.9998 90.0361 35.1073C92.8621 36.5554 94.8531 38.8154 97.1994 40.8908C97.9062 41.5162 99.0584 42.3728 99.6312 43.0634C97.5101 43.5172 96.6456 44.0831 94.6527 44.7632C90.6488 46.1292 85.9011 46.0697 82.0929 44.087C78.8964 42.4572 76.4826 39.5981 75.395 36.153C73.6063 30.4909 75.0473 24.9097 77.7422 19.8526C80.4201 14.8264 83.5196 12.1958 88.8411 10.5012C87.2661 10.3459 84.2473 10.3577 82.6248 10.4482C69.1853 11.198 57.3999 18.6137 48.5455 28.5074C45.1934 32.253 42.4066 36.225 39.1407 39.9729C36.8735 42.5742 33.5524 45.3215 29.9535 45.1987C29.012 45.1671 28.1779 44.721 27.2668 44.699C26.8979 44.6894 26.3514 45.4165 26.0785 45.7253C22.9183 43.9555 21.3597 42.0514 18.9487 39.4117C15.3452 35.4663 11.471 32.7671 6.15225 31.9307C6.60584 32.1654 7.22652 32.4379 7.69568 32.6104C13.7134 34.8227 17.268 39.8956 21.4365 44.4236C22.2952 45.357 24.7867 46.7939 25.3356 47.6505C25.0138 47.9987 23.2236 47.2975 22.7578 47.1335C17.2754 45.1997 13.9059 41.6303 9.84744 37.7538C11.1268 40.5098 15.2318 44.3172 17.6066 46.0841C18.6529 46.863 19.7159 47.3081 20.6824 47.9335C21.653 48.5628 24.3649 49.2304 24.9425 49.6985L24.9188 49.8386C24.8447 49.8731 24.6806 49.9508 24.5934 49.9575C21.7371 50.2031 18.3942 49.7052 15.8611 48.3201C14.7453 47.71 13.9917 47.0165 12.9567 46.4093C13.0344 46.5177 13.1148 46.6232 13.1978 46.7277C16.0954 50.3604 20.7078 51.7139 25.1091 51.6937C25.3198 51.6928 25.4004 52.0419 25.4696 52.2088C25.4444 52.4381 25.4728 52.6376 25.2987 52.7479C24.7545 53.0942 24.1442 53.4578 23.6031 53.7973C22.3776 54.5609 21.244 55.4655 20.2256 56.4928C18.3416 58.4151 17.1132 60.8756 16.389 63.4579C16.9627 62.6636 17.4185 61.7207 17.9365 60.8842C19.2968 58.6751 21.3039 56.8823 23.53 55.5978C24.0356 55.3053 25.6166 54.3125 26.139 54.6511C26.0478 55.053 23.2891 58.017 22.6278 58.9619C20.03 62.6732 17.8437 67.8214 17.2499 72.3193C17.755 71.2104 18.2407 69.7073 18.7371 68.5198C19.9362 65.6564 21.4914 62.9581 23.3652 60.4909C23.9464 59.7207 26.3693 56.7393 27.2514 56.6175L27.4462 56.8631C27.47 57.6535 26.3147 59.1653 25.9551 59.9653C25.4476 61.0972 24.9107 62.3854 24.5969 63.5854C23.245 68.7529 21.9869 74.0766 18.6874 78.4009C18.1194 79.1453 17.4784 79.8014 16.9473 80.6024C20.6252 78.0422 23.2964 73.1596 24.6178 68.9466C25.8246 65.1001 26.4671 61.7686 28.9216 58.4286C29.3534 58.6732 29.7907 58.9888 30.2038 59.2708C29.6048 60.725 28.9309 62.6252 28.6017 64.1782C27.702 68.4238 27.4803 71.4656 25.4111 75.4455C23.228 79.7247 19.6162 83.0858 15.2148 84.9352C14.0018 85.4331 13.0455 85.6182 11.8259 86C15.159 80.4115 15.6816 75.809 14.3679 69.4809C12.909 62.4535 14.9322 56.8564 21.1405 53.1412C19.8661 53.0482 18.7095 52.9829 17.4847 52.6338C13.344 51.453 10.1565 47.7743 8.96877 43.6822C7.95729 40.1978 7.8565 37.6977 5.62448 34.6155C3.79693 32.0919 2.41251 31.4677 0 29.7903C1.23699 29.4653 2.50133 29.2582 3.7766 29.1714C10.1439 28.7789 15.793 31.5652 19.9901 36.2952C21.4586 37.9502 22.7051 39.8859 24.3476 41.3589C26.0401 42.8774 27.8809 43.7925 30.1879 43.6131C35.5778 43.1929 39.3079 37.0359 42.2791 33.0063C43.7889 30.9412 45.3725 28.9322 47.0264 26.983C54.6847 18.0023 64.3835 11.2682 75.9915 8.88945C78.7045 8.33357 81.0223 8.0999 83.7647 7.89203ZM85.2466 18.6011C86.0445 17.9304 87.818 16.7009 88.8705 17.116L88.8544 17.2328C85.7121 18.9789 86.1433 22.4064 89.5583 23.4796L89.6048 23.5799C89.0824 24.1143 87.7819 23.8682 87.1312 23.669C86.7256 23.4715 86.3257 23.2632 85.9315 23.0443L85.8508 23.1187C85.9505 23.577 86.6582 24.1761 87.0477 24.4308C87.97 25.0239 89.0919 25.2143 90.1558 24.9588C91.3973 24.662 92.2418 23.8849 92.9134 22.8153C94.6831 19.9974 92.4669 15.3928 88.976 15.7559C87.0904 15.98 85.9837 16.8228 85.2466 18.6011ZM97.4873 15.6074C97.8406 15.4592 98.0857 15.1286 98.1266 14.7449C98.1684 14.3612 97.9993 13.9852 97.6858 13.7639C97.3733 13.5425 96.9648 13.5111 96.6228 13.6816C96.1146 13.9341 95.8981 14.5475 96.1317 15.0676C96.3654 15.5876 96.9658 15.8266 97.4873 15.6074Z" fill="#FEFEFE"/>
<path d="M90.6041 18.332C91.1029 18.2139 91.6063 18.5127 91.7479 19.0109C91.8884 19.509 91.6168 20.0311 91.1314 20.1972C90.7951 20.3119 90.4237 20.2307 90.1653 19.9859C89.9069 19.741 89.8024 19.3722 89.8936 19.0263C89.9858 18.6805 90.2584 18.4137 90.6041 18.332Z" fill="#FEFEFE"/>
<path d="M118.965 29.846C121.936 29.498 124.596 32.2496 124.935 35.1126C125.631 40.9704 120.613 44.2433 115.446 44.8611C109.12 45.6169 104.711 44.0985 99.7433 40.2818C97.5766 38.5389 95.6017 36.6601 93.3608 34.8894C95.6653 34.9461 97.1349 35.0467 99.4099 34.3641C103.888 33.0204 106.308 29.7879 111.372 30.8169C114.047 31.3605 115.532 32.2376 117.089 34.5062C116.799 32.7568 116.764 32.4929 115.915 30.9461C117.057 30.1927 117.651 30.0446 118.965 29.846ZM101.522 39.4057C101.865 39.7383 102.187 40.0834 102.582 40.3467C106.371 43.0894 111.097 44.1704 115.687 43.3436C118.044 42.9397 121.741 41.5757 122.747 39.1425C122.662 39.0075 122.691 39.0347 122.651 39.0061C117.996 42.7766 109.976 42.5368 104.59 40.6839C103.587 40.3388 102.499 39.8394 101.522 39.4057Z" fill="#FEFEFE"/>
<path d="M106.814 15.9457C110.113 15.6004 111.001 17.5987 113.642 18.094C114.839 17.966 116.254 15.8485 117.519 15.9397C123.443 16.3668 125.599 24.5279 122.224 28.7562C120.632 28.118 120.127 27.9699 118.464 27.7019C119.195 25.8726 119.36 25.3983 119.285 23.4026C117.69 27.356 114.325 29.0016 110.411 26.8185C110.113 26.6643 109.693 26.3741 109.398 26.1847L109.298 26.2715C105.963 29.1278 99.8108 32.9503 95.4877 33.1512C93.9336 33.2236 92.4945 32.98 90.9404 32.8408C91.7279 32.1878 92.542 31.5017 93.1803 30.694C97.1054 25.7308 99.3634 16.5378 106.814 15.9457ZM103.413 20.2145C106.759 18.2298 108.781 18.3482 112.226 20.0123C110.873 18.7132 109.268 17.6724 107.327 17.7145C107.058 17.7211 106.79 17.7317 106.521 17.7463C103.554 18.4061 101.551 20.262 99.9286 22.8274C99.7633 23.0905 99.6027 23.3564 99.447 23.6251C100.722 22.4105 101.929 21.161 103.413 20.2145ZM115.245 20.1404C115.984 19.7381 116.527 19.363 117.216 18.8892C118.56 18.3035 119.268 18.3996 120.605 19.0566L120.638 18.9477C120.12 18.2204 119.446 17.7992 118.562 17.6842C116.897 17.7751 116.104 18.8312 115.245 20.1404Z" fill="#FEFEFE"/>
<path d="M65.0105 0.0249206C65.7257 -0.0601641 67.0537 0.0925458 67.769 0.184345C72.4464 0.784734 77.006 3.44663 80.6936 6.38325C79.3723 6.481 77.9389 6.67735 76.6137 6.83505C75.8832 6.54114 74.2019 5.44233 73.3764 4.98842C69.9215 3.0897 67.4869 2.71252 63.672 2.59156C64.5383 2.93871 65.7039 3.22475 66.6301 3.54418C69.2746 4.45699 71.3227 5.67274 73.5113 7.41903C72.1244 7.88033 70.5675 8.32743 69.1531 8.77828C64.9354 7.161 63.2825 6.8643 58.8034 7.33769C61.9061 8.23525 63.0156 8.05051 66.2995 9.86424L65.3116 10.3789C64.1175 10.9059 63.0479 11.5912 61.8681 12.1552C59.5708 11.5727 56.5981 11.7326 54.3402 12.4291C56.2425 12.7464 57.5806 12.9569 59.3899 13.6699C58.84 14.0294 56.161 16.0157 55.8647 16.0764C53.8259 16.4944 52.0829 16.2384 49.9065 17.0746C51.1449 17.2715 52.3717 17.5368 53.5813 17.8693C52.9444 18.5667 51.545 19.7344 50.7861 20.413C48.9548 20.2226 47.2691 20.1854 45.4353 20.4485C45.8331 19.8412 46.6398 18.9402 47.156 18.3789C51.7978 13.3334 56.0876 8.05674 60.447 2.7695C61.8054 1.12181 62.8351 0.153651 65.0105 0.0249206Z" fill="#FEFEFE"/>
<path d="M57.0393 38.4929C60.523 38.2238 65.8207 39.5659 69.1797 40.4807C67.7348 41.638 67.1677 40.9358 65.4987 40.6959C60.2694 39.9448 54.7851 39.9285 50.2552 43.0673C51.54 42.7881 52.9668 42.2385 54.427 41.9172C57.8728 41.1574 63.3291 41.333 66.7412 42.3229C65.5614 42.4898 63.786 42.4937 62.4533 42.6164C58.6296 42.9675 52.8805 44.7277 50.0022 47.2515C54.7812 45.4769 58.743 43.9191 63.9912 43.8788C65.0295 43.8711 65.8711 43.7733 66.9435 43.8989C64.0349 44.5944 61.7465 45.3618 59.0396 46.6568C57.8571 47.2678 55.3773 48.7335 54.5014 49.6985C59.3065 47.6496 61.8719 46.1848 67.2988 45.3349C64.7369 46.9273 61.1899 48.9704 59.1278 51.1374C61.5356 50.0208 63.8592 48.6539 66.2473 47.4894C66.8286 47.2054 68.0673 46.0237 68.6961 46.6577C68.5546 47.0625 67.7348 47.6611 67.3672 47.9623C65.2441 49.6995 62.7791 51.9105 60.1322 52.7383C56.6067 53.8424 51.8567 50.6971 48.9228 48.9541C47.742 48.2472 46.5415 47.5747 45.3225 46.9369C45.7962 45.4817 47.2 43.4673 48.2162 42.3267C50.7695 39.4619 53.3587 38.6792 57.0393 38.4929Z" fill="#FEFEFE"/>
<path d="M78.4338 56.3278L78.5829 56.4007C78.7359 56.8852 78.4803 58.1878 78.3701 58.7163C76.4722 67.8742 69.5862 73.3534 60.4442 73.5635C62.1236 72.0767 63.8354 69.8685 64.3769 67.7773C65.4142 63.7696 67.8935 62.8104 71.0804 60.7308C72.1453 60.0353 73.3099 59.0195 74.3083 58.089C73.6357 59.6257 72.1453 61.3984 71.0054 62.6166C69.5368 64.1409 68.5242 65.055 66.8818 66.4047C68.623 65.9279 70.5352 64.3173 71.8755 63.1471C73.5911 61.6487 74.9172 59.7274 76.1321 57.8089C75.5631 59.8569 74.4622 61.8204 73.2976 63.5797C72.1159 65.3658 70.6425 67.0061 69.0315 68.4047C68.1718 69.151 67.1582 69.6498 66.3223 70.4392C71.4253 68.2263 74.3159 64.9648 76.7553 59.8857C77.1685 59.0252 77.8705 56.9082 78.4338 56.3278Z" fill="#FEFEFE"/>
<path d="M48.0941 59.7398L48.319 59.8147C48.2451 60.6972 43.7515 63.3293 43.1891 63.901C43.769 64.1639 47.2458 62.3624 47.8903 62.0238C48.4546 61.7284 50.1119 60.4506 50.5524 60.4459C50.4462 61.0348 49.9572 61.2689 49.6554 61.6957C48.0901 63.9087 45.642 64.9677 43.7406 66.6627C45.9011 65.9519 47.2146 65.0492 49.0851 63.8703C49.9947 63.2967 52.0729 61.2593 52.5202 61.1893L52.582 61.3101C51.8588 62.9936 48.3697 66.466 46.8637 67.4723C46.6735 67.5826 46.0966 68.0613 45.893 68.2214L45.9786 68.1936C48.5004 67.3341 50.8481 65.4761 52.6389 63.5077C53.0694 63.0339 54.2574 61.4933 54.8869 61.7773C54.9174 62.0622 54.7067 62.3912 54.5419 62.6425C51.2719 67.6277 47.5726 70.0306 41.9235 71.3294C42.3059 69.5385 42.5158 67.8445 41.9491 66.0718C41.7834 65.4473 40.7828 63.7917 41.1956 63.1883C41.92 62.1303 43.4962 61.5317 44.6565 61.0626C45.7515 60.6204 46.9581 60.1255 48.0941 59.7398Z" fill="#FEFEFE"/>
<path d="M40.5527 54.7988C44.8506 54.2933 53.6351 57.3111 58.224 58.2329C62.496 59.0914 65.0864 59.3399 69.3962 59.6238C68.4283 60.3979 67.5733 61.0588 66.5104 61.69C64.3512 61.5643 60.922 60.9427 58.7997 60.4833C50.5332 58.6454 40.5146 53.359 32.6502 58.7864C32.3023 59.0262 31.9545 59.2842 31.6134 59.5355C33.7836 56.3096 36.8417 55.1096 40.5527 54.7988Z" fill="#FEFEFE"/>
<path d="M105.511 46.6117C106.056 46.5666 106.864 46.6146 107.429 46.6328C102.377 51.9067 95.255 56.4755 88.4098 58.8919C86.0654 59.7197 83.6403 60.3442 81.2256 60.9178C80.6556 61.0003 80.2909 61.0905 79.7361 61.2315C79.8321 60.867 80.2348 58.8439 80.516 58.7825C88.1486 57.1048 95.3756 54.1628 101.767 49.5623C103.044 48.6424 104.241 47.6112 105.511 46.6117Z" fill="#FEFEFE"/>
<path d="M70.2835 21.7784C70.2778 21.9969 68.9384 25.0259 68.7455 25.4191C68.2012 25.5808 67.6208 25.6994 67.068 25.8542C59.7125 27.9136 53.1144 32.2709 47.3713 37.248C46.6918 37.8368 46.0817 38.526 45.374 39.0768L45.3013 39.1321L45.3065 38.9366C45.8786 38.1448 47.985 35.9617 48.7609 35.1803C55.1195 28.7762 61.624 24.2593 70.2835 21.7784Z" fill="#FEFEFE"/>
<path d="M73.783 21.463C73.9625 21.6864 73.308 23.1192 73.1997 23.4872C71.8242 28.1756 71.4842 32.9795 73.1009 37.6612C74.768 42.4917 78.0339 46.3795 82.1812 49.2486C82.7151 49.6179 83.2375 49.9383 83.7486 50.3278L82.223 49.6697C80.8475 49.0376 79.8178 48.5378 78.543 47.6668C74.3263 44.768 71.4148 40.3035 70.443 35.2466C69.438 29.9081 70.8629 25.7992 73.783 21.463Z" fill="#FEFEFE"/>
<path d="M89.8366 60.2924L90.0332 60.3806C90.0684 60.4669 90.1073 60.5523 90.1159 60.6473C90.6374 66.5859 88.0508 72.1716 81.8221 73.4282C82.2715 72.068 82.717 71.0301 82.9934 69.5701C83.5776 66.4785 82.9525 64.7385 85.2998 62.3404L85.4356 62.3432C85.5078 62.6761 85.4214 62.9504 85.3568 63.29C85.1469 64.4977 84.6652 66.1504 84.3375 67.3668C86.3314 65.1682 86.244 63.3802 87.4447 61.2401C87.6261 64.5984 86.6838 67.0253 85.0984 69.8982C87.6005 67.8358 88.7119 64.5936 89.0463 61.4953C89.1327 60.6924 89.2553 60.702 89.8366 60.2924Z" fill="#FEFEFE"/>
<path d="M39.03 32.7445C39.5836 32.7159 40.1495 32.7128 40.7046 32.7026C39.2369 33.7358 37.3949 34.1323 35.5344 35.3511C36.6851 35.1988 37.6519 35.0959 38.8095 35.0142C38.4133 35.4624 37.9462 36.1177 37.5756 36.6089C36.6482 37.8969 33.9211 38.5678 34.0451 36.2346C34.0841 35.5019 33.8713 33.8235 34.5295 33.3139C35.4469 32.6036 37.9128 32.7619 39.03 32.7445Z" fill="#FEFEFE"/>
</svg>
